solid unit_sphere
  facet normal 0.862856 0.357407 0.357407
    outer loop
      vertex 1.000000 0.000000 0.000000
      vertex 0.707107 0.707107 0.000000
      vertex 0.707107 0.000000 0.707107
    endloop
  endfacet
  facet normal 0.357407 0.862856 0.357407
    outer loop
      vertex 0.707107 0.707107 0.000000
      vertex 0.000000 1.000000 0.000000
      vertex 0.000000 0.707107 0.707107
    endloop
  endfacet
  facet normal 0.357407 0.357407 0.862856
    outer loop
      vertex 0.707107 0.000000 0.707107
      vertex 0.000000 0.707107 0.707107
      vertex 0.000000 0.000000 1.000000
    endloop
  endfacet
  facet normal 0.577350 0.577350 0.577350
    outer loop
      vertex 0.707107 0.707107 0.000000
      vertex 0.000000 0.707107 0.707107
      vertex 0.707107 0.000000 0.707107
    endloop
  endfacet
  facet normal -0.357407 0.862856 0.357407
    outer loop
      vertex 0.000000 1.000000 0.000000
      vertex -0.707107 0.707107 0.000000
      vertex 0.000000 0.707107 0.707107
    endloop
  endfacet
  facet normal -0.862856 0.357407 0.357407
    outer loop
      vertex -0.707107 0.707107 0.000000
      vertex -1.000000 0.000000 0.000000
      vertex -0.707107 0.000000 0.707107
    endloop
  endfacet
  facet normal -0.357407 0.357407 0.862856
    outer loop
      vertex 0.000000 0.707107 0.707107
      vertex -0.707107 0.000000 0.707107
      vertex 0.000000 0.000000 1.000000
    endloop
  endfacet
  facet normal -0.577350 0.577350 0.577350
    outer loop
      vertex -0.707107 0.707107 0.000000
      vertex -0.707107 0.000000 0.707107
      vertex 0.000000 0.707107 0.707107
    endloop
  endfacet
  facet normal -0.862856 -0.357407 0.357407
    outer loop
      vertex -1.000000 0.000000 0.000000
      vertex -0.707107 -0.707107 0.000000
      vertex -0.707107 0.000000 0.707107
    endloop
  endfacet
  facet normal -0.357407 -0.862856 0.357407
    outer loop
      vertex -0.707107 -0.707107 0.000000
      vertex 0.000000 -1.000000 0.000000
      vertex 0.000000 -0.707107 0.707107
    endloop
  endfacet
  facet normal -0.357407 -0.357407 0.862856
    outer loop
      vertex -0.707107 0.000000 0.707107
      vertex 0.000000 -0.707107 0.707107
      vertex 0.000000 0.000000 1.000000
    endloop
  endfacet
  facet normal -0.577350 -0.577350 0.577350
    outer loop
      vertex -0.707107 -0.707107 0.000000
      vertex 0.000000 -0.707107 0.707107
      vertex -0.707107 0.000000 0.707107
    endloop
  endfacet
  facet normal 0.357407 -0.862856 0.357407
    outer loop
      vertex 0.000000 -1.000000 0.000000
      vertex 0.707107 -0.707107 0.000000
      vertex 0.000000 -0.707107 0.707107
    endloop
  endfacet
  facet normal 0.862856 -0.357407 0.357407
    outer loop
      vertex 0.707107 -0.707107 0.000000
      vertex 1.000000 0.000000 0.000000
      vertex 0.707107 0.000000 0.707107
    endloop
  endfacet
  facet normal 0.357407 -0.357407 0.862856
    outer loop
      vertex 0.000000 -0.707107 0.707107
      vertex 0.707107 0.000000 0.707107
      vertex 0.000000 0.000000 1.000000
    endloop
  endfacet
  facet normal 0.577350 -0.577350 0.577350
    outer loop
      vertex 0.707107 -0.707107 0.000000
      vertex 0.707107 0.000000 0.707107
      vertex 0.000000 -0.707107 0.707107
    endloop
  endfacet
  facet normal 0.357407 0.862856 -0.357407
    outer loop
      vertex 0.000000 1.000000 0.000000
      vertex 0.707107 0.707107 0.000000
      vertex 0.000000 0.707107 -0.707107
    endloop
  endfacet
  facet normal 0.862856 0.357407 -0.357407
    outer loop
      vertex 0.707107 0.707107 0.000000
      vertex 1.000000 0.000000 0.000000
      vertex 0.707107 0.000000 -0.707107
    endloop
  endfacet
  facet normal 0.357407 0.357407 -0.862856
    outer loop
      vertex 0.000000 0.707107 -0.707107
      vertex 0.707107 0.000000 -0.707107
      vertex 0.000000 0.000000 -1.000000
    endloop
  endfacet
  facet normal 0.577350 0.577350 -0.577350
    outer loop
      vertex 0.707107 0.707107 0.000000
      vertex 0.707107 0.000000 -0.707107
      vertex 0.000000 0.707107 -0.707107
    endloop
  endfacet
  facet normal -0.862856 0.357407 -0.357407
    outer loop
      vertex -1.000000 0.000000 0.000000
      vertex -0.707107 0.707107 0.000000
      vertex -0.707107 0.000000 -0.707107
    endloop
  endfacet
  facet normal -0.357407 0.862856 -0.357407
    outer loop
      vertex -0.707107 0.707107 0.000000
      vertex 0.000000 1.000000 0.000000
      vertex 0.000000 0.707107 -0.707107
    endloop
  endfacet
  facet normal -0.357407 0.357407 -0.862856
    outer loop
      vertex -0.707107 0.000000 -0.707107
      vertex 0.000000 0.707107 -0.707107
      vertex 0.000000 0.000000 -1.000000
    endloop
  endfacet
  facet normal -0.577350 0.577350 -0.577350
    outer loop
      vertex -0.707107 0.707107 0.000000
      vertex 0.000000 0.707107 -0.707107
      vertex -0.707107 0.000000 -0.707107
    endloop
  endfacet
  facet normal -0.357407 -0.862856 -0.357407
    outer loop
      vertex 0.000000 -1.000000 0.000000
      vertex -0.707107 -0.707107 0.000000
      vertex 0.000000 -0.707107 -0.707107
    endloop
  endfacet
  facet normal -0.862856 -0.357407 -0.357407
    outer loop
      vertex -0.707107 -0.707107 0.000000
      vertex -1.000000 0.000000 0.000000
      vertex -0.707107 0.000000 -0.707107
    endloop
  endfacet
  facet normal -0.357407 -0.357407 -0.862856
    outer loop
      vertex 0.000000 -0.707107 -0.707107
      vertex -0.707107 0.000000 -0.707107
      vertex 0.000000 0.000000 -1.000000
    endloop
  endfacet
  facet normal -0.577350 -0.577350 -0.577350
    outer loop
      vertex -0.707107 -0.707107 0.000000
      vertex -0.707107 0.000000 -0.707107
      vertex 0.000000 -0.707107 -0.707107
    endloop
  endfacet
  facet normal 0.862856 -0.357407 -0.357407
    outer loop
      vertex 1.000000 0.000000 0.000000
      vertex 0.707107 -0.707107 0.000000
      vertex 0.707107 0.000000 -0.707107
    endloop
  endfacet
  facet normal 0.357407 -0.862856 -0.357407
    outer loop
      vertex 0.707107 -0.707107 0.000000
      vertex 0.000000 -1.000000 0.000000
      vertex 0.000000 -0.707107 -0.707107
    endloop
  endfacet
  facet normal 0.357407 -0.357407 -0.862856
    outer loop
      vertex 0.707107 0.000000 -0.707107
      vertex 0.000000 -0.707107 -0.707107
      vertex 0.000000 0.000000 -1.000000
    endloop
  endfacet
  facet normal 0.577350 -0.577350 -0.577350
    outer loop
      vertex 0.707107 -0.707107 0.000000
      vertex 0.000000 -0.707107 -0.707107
      vertex 0.707107 0.000000 -0.707107
    endloop
  endfacet
endsolid unit_sphere
